# xmcd CD database file
#
# Track frame offsets:
#	150
#	15842
#	30775
#	45372
#	60082
#	76594
#	91396
#	109081
#	125093
#	140018
#	157488
#
# Disc length: 2314 seconds
#
# Revision: 1
# Processed by: cddbd v1.5.2PL0 Copyright (c) Steve Scherf et al.
# Submitted via: CDex 1.81
#
DISCID=7909080b
DTITLE=Various Artist - Magic News Vol. 87
DYEAR=2004
DGENRE=Electronic
TTITLE0=Kate Ryan - La Promesse (Radio Version)
TTITLE1=Frankee - F U Right Back (Clean Version)
TTITLE2=Twoface - Revelations Day (Album Version)
TTITLE3=Benny Benassi feat. Dhany - Hit My Heart (Radio/Video Edit)
TTITLE4=Despina Vandi - Opa Opa (English Version)
TTITLE5=One Track Mind - I Like You
TTITLE6=Brothers - The Moon (Radio Mix)
TTITLE7=Jan Wayne feat. Charlene - Here I Am (Send Me An Angel) (Radio Edit)
TTITLE8=Frankee - F U Right Back (Explicit Version)
TTITLE9=Florida Inc. - F**K You (I Don't Want You Back) (Radio Mix)
TTITLE10=O-Zone - Dragostea Din Tei (Original Version)
EXTD=YEAR: 2004
EXTT0=
EXTT1=
EXTT2=
EXTT3=
EXTT4=
EXTT5=
EXTT6=
EXTT7=
EXTT8=
EXTT9=
EXTT10=
PLAYORDER=
